<svg id="visual" viewBox="0 0 1920 1080" width="1920" height="1080" xmlns="http://www.w3.org/2000/svg" xmlns:xlink="http://www.w3.org/1999/xlink" version="1.1"><rect x="0" y="0" width="1920" height="1080" fill="#001220"></rect><defs><linearGradient id="grad1_0" x1="43.8%" y1="0%" x2="100%" y2="100%"><stop offset="14.444444444444446%" stop-color="#001220" stop-opacity="1"></stop><stop offset="85.55555555555554%" stop-color="#001220" stop-opacity="1"></stop></linearGradient></defs><defs><linearGradient id="grad2_0" x1="0%" y1="0%" x2="56.3%" y2="100%"><stop offset="14.444444444444446%" stop-color="#001220" stop-opacity="1"></stop><stop offset="85.55555555555554%" stop-color="#001220" stop-opacity="1"></stop></linearGradient></defs><g transform="translate(1920, 0)"><path d="M0 810C-109.1 802.6 -218.1 795.3 -310 748.3C-401.8 701.4 -476.4 614.8 -529.6 529.6C-582.8 444.4 -614.6 360.5 -657.8 272.5C-701 184.4 -755.5 92.2 -810 0L0 0Z" fill="#d76060"></path></g><g transform="translate(0, 1080)"><path d="M0 -810C66.5 -701.3 132.9 -592.6 235 -567.3C337 -541.9 474.6 -599.8 569.2 -569.2C663.8 -538.6 715.4 -419.6 748.3 -310C781.3 -200.4 795.7 -100.2 810 0L0 0Z" fill="#d76060"></path></g></svg>